<?xml version="1.0" encoding="UTF-8"?><!DOCTYPE svg PUBLIC "-//W3C//DTD SVG 1.1//EN" "http://www.w3.org/Graphics/SVG/1.1/DTD/svg11.dtd"><svg xmlns="http://www.w3.org/2000/svg" xmlns:xlink="http://www.w3.org/1999/xlink"><symbol id="test" viewBox="0 0 24 24"><g><path d="M0 0h24v24H0z" fill="none"/><path d="M21 20h2v2H1v-2h2V3a1 1 0 0 1 1-1h16a1 1 0 0 1 1 1v17zm-2 0V4H5v16h14zM8 11h3v2H8v-2zm0-4h3v2H8V7zm0 8h3v2H8v-2zm5 0h3v2h-3v-2zm0-4h3v2h-3v-2zm0-4h3v2h-3V7z"/></g></symbol><symbol id="test2" viewBox="0 0 24 24"><g><path d="M0 0h24v24H0z" fill="none"/><path d="M20 20a1 1 0 0 1-1 1H5a1 1 0 0 1-1-1v-9H1l10.327-9.388a1 1 0 0 1 1.346 0L23 11h-3v9z"/></g></symbol></svg>